<mxfile host="app.diagrams.net" modified="2023-07-15T05:30:20.767Z" agent="Mozilla/5.0 (Windows NT 10.0; Win64; x64) AppleWebKit/537.36 (KHTML, like Gecko) Chrome/93.0.4577.63 Safari/537.36 Edg/93.0.961.47" etag="TSBkx3356sCaeQH00ajH" version="21.6.2" type="github">
  <diagram name="第 1 页" id="7kBnTq7nN9_Uk7XhEccd">
    <mxGraphModel dx="1050" dy="580" grid="1" gridSize="10" guides="1" tooltips="1" connect="1" arrows="1" fold="1" page="1" pageScale="1" pageWidth="827" pageHeight="1169" math="0" shadow="0">
      <root>
        <mxCell id="0" />
        <mxCell id="1" parent="0" />
        <mxCell id="M2EXbUAn4DR0pc2l3wBk-6" value="" style="swimlane;startSize=0;dashed=1;" vertex="1" parent="1">
          <mxGeometry x="500" y="390" width="180" height="260" as="geometry">
            <mxRectangle x="490" y="385" width="50" height="40" as="alternateBounds" />
          </mxGeometry>
        </mxCell>
        <mxCell id="M2EXbUAn4DR0pc2l3wBk-3" value="GuiDocument.xml" style="rounded=0;whiteSpace=wrap;html=1;" vertex="1" parent="M2EXbUAn4DR0pc2l3wBk-6">
          <mxGeometry x="30" y="60" width="110" height="25" as="geometry" />
        </mxCell>
        <mxCell id="M2EXbUAn4DR0pc2l3wBk-8" value="PointColorArray" style="rounded=0;whiteSpace=wrap;html=1;" vertex="1" parent="M2EXbUAn4DR0pc2l3wBk-6">
          <mxGeometry x="30" y="140" width="110" height="25" as="geometry" />
        </mxCell>
        <mxCell id="M2EXbUAn4DR0pc2l3wBk-9" value="LineColorArray" style="rounded=0;whiteSpace=wrap;html=1;" vertex="1" parent="M2EXbUAn4DR0pc2l3wBk-6">
          <mxGeometry x="30" y="182" width="110" height="25" as="geometry" />
        </mxCell>
        <mxCell id="M2EXbUAn4DR0pc2l3wBk-10" value="PartShape.brep" style="rounded=0;whiteSpace=wrap;html=1;" vertex="1" parent="M2EXbUAn4DR0pc2l3wBk-6">
          <mxGeometry x="30" y="100" width="110" height="25" as="geometry" />
        </mxCell>
        <mxCell id="M2EXbUAn4DR0pc2l3wBk-13" value="Document.xml" style="rounded=0;whiteSpace=wrap;html=1;" vertex="1" parent="M2EXbUAn4DR0pc2l3wBk-6">
          <mxGeometry x="30" y="20" width="110" height="25" as="geometry" />
        </mxCell>
        <mxCell id="M2EXbUAn4DR0pc2l3wBk-14" value="DiffuseColor" style="rounded=0;whiteSpace=wrap;html=1;" vertex="1" parent="M2EXbUAn4DR0pc2l3wBk-6">
          <mxGeometry x="30" y="220" width="110" height="25" as="geometry" />
        </mxCell>
        <mxCell id="M2EXbUAn4DR0pc2l3wBk-15" value=".FCStd文件" style="text;html=1;align=center;verticalAlign=middle;resizable=0;points=[];autosize=1;strokeColor=none;fillColor=none;" vertex="1" parent="1">
          <mxGeometry x="545" y="360" width="90" height="30" as="geometry" />
        </mxCell>
      </root>
    </mxGraphModel>
  </diagram>
</mxfile>
